<?xml version="1.0"?>
<svg xmlns="http://www.w3.org/2000/svg" viewBox="0 0 50 50" width="50px" height="50px">
    <path d="M 8.2402344 5 C 4.0066736 5 0.89374623 8.4873282 1.0136719 12.683594 L 1 32.410156 L 1 32.423828 C 1.2171458 40.043186 7.1545427 46 14.78125 46 L 42.439453 46 C 46.610867 46 50.011719 42.591436 50.011719 38.416016 L 50 12.583984 C 50 8.4085642 46.599149 5 42.427734 5 L 36.984375 5 C 36.097919 5 35.233374 5.2778743 34.511719 5.7929688 L 33.205078 6.7246094 L 32.203125 6.0136719 C 31.302602 5.3760345 30.124543 5 29.019531 5 L 21.638672 5 C 20.751523 5 19.887206 5.2782061 19.166016 5.7929688 L 17.859375 6.7246094 L 16.535156 5.7851562 C 15.815078 5.2741751 14.95272 5 14.070312 5 L 8.2402344 5 z M 8.2402344 7 L 14.070312 7 C 14.537906 7 14.995031 7.1449968 15.376953 7.4160156 L 17.863281 9.1796875 L 20.328125 7.4199219 C 20.710935 7.1466845 21.167821 7 21.638672 7 L 29.019531 7 C 29.492519 7 30.659398 7.3721217 31.046875 7.6464844 L 33.208984 9.1796875 L 35.673828 7.4199219 C 36.056173 7.1470163 36.514831 7 36.984375 7 L 42.427734 7 C 45.51632 7 48 9.4874054 48 12.583984 L 48.011719 38.416016 C 48.011718 41.512595 45.528039 44 42.439453 44 L 14.78125 44 C 8.1819573 44 3.1888542 38.99383 3 32.367188 L 3.0136719 12.642578 L 3.0136719 12.626953 C 2.9215974 9.4052236 5.0677952 7 8.2402344 7 z M 9 14 L 9 32.607422 C 9 35.585422 11.414578 38 14.392578 38 L 42 38 L 41.96875 14 L 37 14 L 37 33 L 28 32.970703 L 28 14 L 23 14 L 23 33 L 16.255859 33.005859 C 15.041859 33.005859 14 32.05175 14 30.84375 L 13.939453 14 L 9 14 z"/>
</svg>
